<svg width="75" height="75" viewBox="0 0 75 75" fill="none" xmlns="http://www.w3.org/2000/svg">
<path d="M36.8248 4.335C34.7548 4.58999 32.9248 5.48999 31.4098 6.97499C30.1198 8.24999 29.3548 9.68999 28.9948 11.535C27.9448 16.83 32.7148 21.615 37.7248 20.325C40.3348 19.65 42.1498 17.415 42.1498 14.865C42.1498 13.53 41.8198 12.615 40.9948 11.7C40.1698 10.785 39.3748 10.35 38.3248 10.245C36.3898 10.05 34.7998 11.31 34.7998 13.02C34.7998 13.74 34.8598 13.89 35.3098 14.34C35.8498 14.88 36.3598 14.985 36.8248 14.655C37.0198 14.505 37.0648 14.325 37.0048 14.01C36.8848 13.35 37.1248 13.05 37.7848 13.05C38.4448 13.05 38.9248 13.47 39.1498 14.25C39.4498 15.3 38.7748 16.59 37.6198 17.16C35.7748 18.075 33.4498 17.235 32.4598 15.27C31.0798 12.54 32.2498 9.37499 35.2048 7.91999C36.0598 7.49999 36.3898 7.42499 37.5748 7.37999C40.8898 7.22999 43.4548 8.96999 44.6998 12.225C45.2098 13.53 45.2248 16.005 44.7298 17.43C43.8448 19.965 41.7748 22.065 39.2548 22.95C37.0198 23.73 35.0098 23.685 32.2198 22.74C29.5198 21.84 27.4198 21.705 25.1248 22.29C20.4148 23.505 17.0848 27.45 16.8448 32.1C16.4698 39.42 23.8498 44.505 30.0748 41.205C31.1098 40.65 32.3248 39.51 32.9848 38.46C34.5298 36.045 34.4398 32.73 32.7898 30.48C31.5598 28.815 29.9548 28.005 27.8998 27.99C26.7448 27.975 26.5198 28.02 25.6198 28.47C23.3998 29.565 22.3198 31.755 22.9798 33.915C23.3548 35.175 24.7648 36.285 25.9948 36.3C27.6448 36.3 28.8748 34.77 28.0498 33.705C27.6748 33.225 27.4048 33.195 26.8948 33.585C26.0098 34.29 25.2748 33.105 25.8748 31.95C26.1598 31.395 27.1048 30.9 27.8848 30.9C30.4648 30.9 31.9648 34.185 30.5098 36.705C29.0098 39.3 25.2898 39.975 22.5898 38.115C20.5948 36.735 19.4998 33.99 19.9348 31.5C20.6248 27.705 23.9098 25.02 27.8848 25.005C31.4998 25.005 34.6498 27.075 36.1948 30.45C36.4348 30.99 36.8098 32.235 37.0048 33.225C37.4548 35.385 38.0248 36.84 38.9848 38.205C42.1798 42.75 47.8948 44.31 52.7998 41.97C53.8348 41.475 54.3148 41.115 55.3648 40.065C56.4148 39.015 56.7748 38.535 57.2698 37.5C58.0798 35.79 58.2598 34.89 58.1698 32.91C58.0798 30.99 57.7648 30.015 56.7448 28.47C55.0498 25.89 51.9448 24.45 49.0048 24.87C44.7448 25.485 41.9998 29.49 43.1998 33.315C44.0398 35.97 46.6198 37.53 49.2148 36.975C50.7598 36.645 52.0498 35.31 52.2898 33.795C52.5748 31.935 50.8348 30.135 49.3348 30.75C48.3748 31.155 48.2098 32.13 49.0648 32.43C49.7398 32.67 49.8148 33.24 49.2148 33.78C48.3898 34.515 47.1148 34.215 46.3798 33.105C46.0498 32.595 45.9748 32.325 45.9748 31.515C45.9748 30.705 46.0498 30.405 46.3948 29.805C47.0848 28.635 48.6448 27.75 50.0398 27.75C51.0748 27.75 52.4398 28.32 53.3098 29.115C55.9348 31.5 55.8148 35.625 53.0548 38.145C48.9898 41.88 42.2848 39.84 40.4248 34.305C39.6448 31.95 39.8098 29.7 40.9798 27.3C41.5348 26.16 41.8048 25.815 43.6498 24C45.9598 21.72 46.2448 21.375 47.0248 19.83C48.1348 17.61 48.4798 14.67 47.9248 12.345C47.5948 11.01 46.6798 9.13499 45.8248 8.06999C43.7398 5.42999 40.1398 3.94499 36.8248 4.335Z" fill="#3491FF"/>
<path d="M15.9299 53.88L15.9749 68.025L16.3049 68.64C16.7549 69.48 17.4899 70.185 18.2999 70.56C18.9449 70.86 19.2149 70.875 24.6749 70.875C30.1349 70.875 30.4049 70.86 31.0499 70.56C31.8599 70.185 32.5949 69.48 33.0449 68.64C33.3749 68.04 33.3749 67.92 33.4499 60.105L33.5249 52.17L33.9449 51.81C34.3649 51.45 34.4099 51.45 37.4999 51.45H40.6199L41.0849 51.84L41.5349 52.215L41.5799 60.045L41.6249 67.875L41.9699 68.58C42.3749 69.39 43.2299 70.215 44.0549 70.605C44.5649 70.845 45.1799 70.875 50.3999 70.875C56.0699 70.875 56.1899 70.875 56.7899 70.545C57.7949 70.005 58.3049 69.495 58.7549 68.58L59.1749 67.725V53.775V39.825L57.7949 39.78L56.3999 39.735V53.595V67.455L56.0549 67.77C55.7099 68.1 55.6349 68.1 50.4599 68.1C44.6099 68.1 44.6999 68.115 44.3999 67.08C44.3099 66.735 44.2499 63.795 44.2499 59.265C44.2499 54.09 44.2049 51.84 44.0699 51.42C43.8149 50.58 42.7649 49.455 41.8499 49.065C41.1149 48.75 40.9049 48.735 37.3799 48.78C34.1549 48.825 33.5999 48.855 33.1349 49.095C32.3699 49.485 31.5149 50.355 31.1399 51.15C30.8399 51.81 30.8249 52.08 30.7499 59.67L30.6749 67.53L30.3149 67.815C29.9849 68.085 29.6549 68.1 24.6449 68.1H19.3349L18.9749 67.725L18.5999 67.365V53.55V39.75H17.2499H15.8999L15.9299 53.88Z" fill="#3491FF"/>
</svg>
